<?xml version="1.0" standalone="no"?>
<!DOCTYPE svg PUBLIC "-//W3C//DTD SVG 20010904//EN"
 "http://www.w3.org/TR/2001/REC-SVG-20010904/DTD/svg10.dtd">
<svg version="1.0" xmlns="http://www.w3.org/2000/svg"
 width="225.000000pt" height="225.000000pt" viewBox="0 0 225.000000 225.000000"
 preserveAspectRatio="xMidYMid meet">
<metadata>
Created by potrace 1.11, written by Peter Selinger 2001-2013
</metadata>
<g transform="translate(0.000000,225.000000) scale(0.100000,-0.100000)"
fill="#000000" stroke="none">
<path d="M566 2223 c-2 -2 -18 -5 -35 -5 -18 -1 -34 -5 -37 -10 -3 -5 -14 -6
-25 -3 -11 4 -19 2 -19 -5 0 -7 -7 -10 -15 -6 -8 3 -15 1 -15 -4 0 -5 -7 -7
-15 -4 -8 4 -15 1 -15 -5 0 -6 -3 -11 -7 -10 -16 2 -53 -14 -53 -23 0 -5 -4
-7 -9 -4 -5 3 -12 -1 -15 -10 -3 -8 -10 -12 -16 -9 -6 3 -13 -1 -16 -9 -3 -9
-10 -14 -14 -11 -4 3 -10 -2 -14 -10 -3 -8 -11 -15 -19 -15 -7 0 -24 -12 -38
-27 l-24 -28 25 20 c14 11 3 -2 -25 -29 -27 -27 -43 -45 -35 -41 8 4 4 -3 -10
-14 -14 -11 -21 -21 -16 -21 5 0 -1 -11 -14 -25 -13 -14 -19 -25 -14 -25 5 0
3 -4 -4 -9 -7 -4 -14 -18 -15 -29 -1 -12 -5 -22 -9 -22 -4 0 -7 -3 -7 -7 1 -5
0 -11 -1 -15 -1 -5 -4 -12 -5 -18 -1 -5 -3 -11 -4 -12 -5 -6 -14 -55 -15 -80
0 -16 -4 -28 -8 -28 -5 0 -8 -27 -8 -60 0 -33 4 -60 9 -60 4 0 7 -11 6 -25 -2
-14 1 -27 5 -30 5 -3 7 -14 5 -25 -2 -11 1 -22 6 -25 5 -4 7 -11 4 -16 -4 -5
-1 -9 5 -9 7 0 10 -6 7 -14 -3 -8 1 -20 9 -27 8 -6 12 -14 9 -17 -3 -3 3 -14
12 -25 11 -13 12 -17 4 -12 -9 5 -7 -2 5 -18 10 -15 23 -27 27 -27 5 0 6 -4 3
-9 -3 -4 2 -17 10 -27 9 -10 12 -13 8 -5 -5 9 -3 12 4 7 7 -4 12 -12 12 -19 0
-6 10 -20 23 -32 13 -11 18 -18 12 -15 -6 3 -3 -2 7 -12 10 -9 18 -20 18 -24
0 -4 19 -25 42 -47 24 -22 34 -34 23 -27 -11 7 -4 -3 16 -21 20 -19 39 -42 42
-51 4 -10 11 -18 17 -18 5 0 10 -6 10 -14 0 -7 11 -22 25 -32 14 -10 25 -23
25 -28 0 -6 12 -21 28 -34 15 -13 20 -20 12 -16 -8 3 3 -10 25 -31 22 -21 33
-34 25 -29 -10 6 -9 3 2 -8 10 -9 18 -21 18 -28 0 -6 4 -9 9 -5 5 3 12 -4 16
-15 3 -11 19 -29 34 -40 16 -11 32 -31 35 -45 4 -14 12 -24 18 -22 7 1 12 -3
13 -9 0 -6 11 -22 25 -35 15 -13 19 -19 10 -14 -9 6 0 -6 20 -25 21 -19 40
-43 43 -52 4 -10 11 -18 17 -18 5 0 10 -6 10 -14 0 -8 12 -24 26 -35 15 -12
23 -21 19 -21 -5 0 2 -8 13 -19 12 -10 19 -21 15 -25 -3 -3 1 -6 10 -6 9 0 19
-5 23 -12 5 -7 2 -9 -7 -4 -8 4 0 -5 16 -21 17 -15 24 -24 15 -19 -8 5 4 -10
28 -32 23 -22 42 -45 42 -51 0 -5 10 -17 22 -25 12 -9 18 -16 13 -16 -6 0 4
-13 20 -28 17 -15 24 -23 15 -18 -8 5 2 -8 24 -28 21 -20 35 -36 31 -36 -5 0
2 -8 13 -19 12 -10 18 -22 14 -27 -4 -5 -4 -7 -1 -4 18 15 99 121 99 130 0 6
5 8 10 5 9 -6 14 8 11 28 -1 5 3 6 8 2 9 -5 35 29 36 47 0 3 4 10 9 15 5 5 6
2 2 -7 -4 -8 4 -2 18 14 14 17 23 33 20 37 -2 4 1 11 7 15 8 5 9 3 4 -7 -12
-21 6 -2 51 56 69 88 43 81 291 80 l222 0 -2 167 c-1 105 2 169 8 171 6 2 83
3 173 2 l162 -1 0 218 c0 200 -1 218 -17 219 -10 1 -44 1 -76 1 -47 -1 -57 1
-48 12 6 7 7 17 3 21 -4 5 -1 5 6 1 11 -6 14 0 11 21 0 3 6 10 15 15 9 5 16
16 16 23 0 8 5 15 11 15 6 0 8 7 5 16 -3 8 -2 13 3 10 8 -5 12 5 26 57 2 4 4
9 5 12 1 3 3 8 4 13 1 4 4 12 8 17 18 29 28 196 16 255 -3 14 -9 42 -13 63 -4
20 -11 37 -15 37 -5 0 -6 10 -2 22 3 14 1 19 -6 14 -8 -4 -10 -2 -6 7 3 8 -1
21 -8 28 -7 8 -14 21 -16 29 -2 7 -11 20 -20 28 -9 7 -10 10 -3 6 9 -4 6 6 -8
24 -12 18 -27 32 -32 32 -6 0 -8 4 -5 8 7 12 -114 122 -133 122 -5 0 -11 4
-13 9 -1 5 -10 11 -18 13 -8 2 -18 7 -21 11 -3 5 -13 9 -21 11 -9 1 -22 7 -29
13 -16 12 -54 25 -84 29 -11 1 -20 3 -20 4 0 5 -50 11 -114 14 -76 4 -213 -18
-219 -35 -2 -5 -8 -7 -12 -4 -14 9 -132 -56 -164 -89 -16 -17 -26 -24 -21 -16
8 13 6 13 -8 1 -9 -7 -14 -17 -11 -22 3 -5 0 -8 -8 -7 -7 2 -12 -3 -10 -10 1
-6 -4 -11 -10 -10 -7 2 -12 -3 -10 -10 1 -6 -1 -11 -5 -10 -5 2 -9 0 -10 -4
-4 -10 -44 -51 -46 -46 -1 1 -13 16 -27 33 -17 20 -19 25 -6 15 14 -11 17 -11
12 -2 -4 7 -19 17 -32 22 -14 6 -29 20 -34 32 -5 13 -9 19 -9 14 -1 -5 -13 4
-27 20 -15 16 -23 22 -19 14 4 -10 1 -9 -8 2 -8 10 -17 15 -20 11 -4 -3 -9 2
-13 11 -3 9 -10 13 -15 10 -5 -3 -9 0 -9 5 0 6 -9 11 -20 11 -11 0 -20 5 -20
11 0 5 -4 7 -10 4 -5 -3 -10 -1 -10 5 0 7 -6 10 -12 8 -7 -3 -23 1 -36 8 -14
7 -31 10 -38 7 -8 -3 -14 -1 -14 4 0 5 -10 10 -22 10 -13 1 -53 4 -90 6 -37 2
-69 2 -72 0z"/>
</g>
</svg>
