<svg width="500" height="421" viewBox="0 0 500 421" fill="none" xmlns="http://www.w3.org/2000/svg">
<g clip-path="url(#clip0)">
<path d="M138.626 223.697H192.233L219.036 177.272L192.233 130.847H138.626L111.822 177.272L138.626 223.697Z" fill="#4BD4DD" fill-opacity="0.1"/>
<path d="M199.028 240.161H131.831C131.149 240.159 130.479 239.979 129.888 239.638C129.298 239.298 128.807 238.808 128.465 238.218L94.8668 180.023C94.5269 179.432 94.348 178.762 94.348 178.08C94.348 177.398 94.5269 176.728 94.8668 176.137L128.465 117.943C128.807 117.353 129.298 116.863 129.889 116.522C130.479 116.181 131.149 116.001 131.831 116H199.028C199.71 116.001 200.379 116.181 200.97 116.522C201.56 116.863 202.051 117.353 202.393 117.943L235.991 176.137C236.331 176.728 236.51 177.398 236.51 178.08C236.51 178.762 236.331 179.432 235.991 180.023L202.393 238.218C202.051 238.808 201.56 239.298 200.97 239.639C200.379 239.979 199.709 240.159 199.028 240.161ZM131.831 117.554C131.421 117.555 131.02 117.663 130.665 117.868C130.311 118.072 130.017 118.366 129.811 118.72L96.2129 176.914C96.009 177.269 95.9016 177.671 95.9016 178.08C95.9016 178.489 96.009 178.891 96.213 179.246L129.811 237.44C130.017 237.794 130.311 238.088 130.665 238.293C131.02 238.497 131.421 238.605 131.831 238.606H199.028C199.437 238.606 199.839 238.498 200.193 238.293C200.547 238.088 200.842 237.794 201.047 237.44L234.645 179.246C234.849 178.891 234.957 178.489 234.957 178.08C234.957 177.671 234.849 177.269 234.645 176.914L201.047 118.72C200.842 118.366 200.547 118.072 200.193 117.868C199.839 117.663 199.437 117.555 199.028 117.554H131.831Z" fill="#4BD4DD"/>
<path d="M165.429 151.644C160.36 151.644 155.405 153.147 151.19 155.963C146.976 158.779 143.691 162.782 141.751 167.465C139.811 172.148 139.304 177.301 140.293 182.272C141.281 187.244 143.722 191.81 147.307 195.395C150.891 198.979 155.457 201.42 160.429 202.409C165.4 203.397 170.553 202.89 175.237 200.95C179.92 199.01 183.922 195.725 186.738 191.511C189.554 187.296 191.058 182.341 191.058 177.272C191.058 173.907 190.395 170.574 189.107 167.465C187.819 164.355 185.931 161.53 183.551 159.15C181.171 156.77 178.346 154.882 175.237 153.595C172.127 152.307 168.794 151.644 165.429 151.644ZM165.429 159.332C166.949 159.332 168.436 159.783 169.7 160.628C170.965 161.473 171.95 162.674 172.532 164.079C173.114 165.483 173.266 167.029 172.97 168.521C172.673 170.012 171.941 171.382 170.866 172.458C169.79 173.533 168.42 174.265 166.929 174.562C165.437 174.858 163.891 174.706 162.487 174.124C161.082 173.542 159.881 172.557 159.036 171.292C158.191 170.028 157.74 168.541 157.74 167.021C157.74 164.982 158.55 163.026 159.992 161.584C161.434 160.142 163.39 159.332 165.429 159.332V159.332ZM165.429 196.346C162.392 196.332 159.403 195.577 156.724 194.147C154.044 192.717 151.754 190.655 150.052 188.14C150.175 183.014 160.303 180.193 165.429 180.193C170.555 180.193 180.683 183.014 180.806 188.14C179.102 190.653 176.811 192.714 174.132 194.144C171.453 195.574 168.466 196.329 165.429 196.346V196.346Z" fill="#4BD4DD"/>
<path d="M44.2776 108.506H97.8847L124.688 62.0805L97.8847 15.6554H44.2776L17.4741 62.0805L44.2776 108.506Z" fill="#4BD4DD" fill-opacity="0.1"/>
<path d="M104.681 124.16H37.4844C36.8025 124.159 36.1329 123.979 35.5423 123.638C34.9518 123.298 34.461 122.808 34.1191 122.218L0.520662 64.0228C0.180725 63.4317 0.00183105 62.7617 0.00183105 62.0799C0.00183105 61.398 0.180725 60.728 0.520662 60.1369L34.1192 1.94294C34.4611 1.35294 34.9518 0.862994 35.5423 0.522046C36.1329 0.181097 36.8025 0.00108402 37.4844 0H104.681C105.363 0.0010713 106.033 0.181072 106.624 0.522022C107.214 0.862972 107.705 1.35293 108.047 1.94294L141.645 60.1369C141.985 60.728 142.164 61.398 142.164 62.0799C142.164 62.7618 141.985 63.4317 141.645 64.0228L108.047 122.218C107.705 122.808 107.214 123.298 106.623 123.638C106.033 123.979 105.363 124.159 104.681 124.16ZM37.4844 1.55438C37.0753 1.55503 36.6735 1.66303 36.3191 1.8676C35.9648 2.07217 35.6704 2.36614 35.4652 2.72015L1.86678 60.9141C1.66282 61.2688 1.55547 61.6708 1.55549 62.0799C1.55551 62.489 1.66287 62.891 1.86687 63.2457L35.4652 121.44C35.6704 121.794 35.9648 122.088 36.3191 122.293C36.6735 122.497 37.0753 122.605 37.4844 122.606H104.681C105.09 122.606 105.492 122.498 105.847 122.293C106.201 122.088 106.495 121.794 106.7 121.44L140.299 63.2456C140.503 62.891 140.61 62.489 140.61 62.0799C140.61 61.6707 140.503 61.2688 140.299 60.9141L106.7 2.72011C106.495 2.36611 106.201 2.07213 105.847 1.86756C105.492 1.66299 105.091 1.55498 104.681 1.55435L37.4844 1.55438Z" fill="#4BD4DD"/>
<path d="M71.0321 44.2271C69.7642 42.8964 68.2465 41.8286 66.5658 41.0847C64.8851 40.3407 63.0743 39.9351 61.2368 39.8911C59.3993 39.8471 57.5712 40.1655 55.8568 40.8282C54.1424 41.4909 52.5753 42.4848 51.2452 43.7533C49.915 45.0217 48.8478 46.5398 48.1044 48.2208C47.361 49.9017 46.9562 51.7127 46.9128 53.5502C46.8695 55.3877 47.1886 57.2157 47.852 58.9299C48.5153 60.644 49.5098 62.2107 50.7787 63.5404C50.9317 63.7008 51.0883 63.8574 51.2488 64.0104L71.5079 84.2696L91.2912 64.4862C93.8732 61.7785 95.2938 58.1683 95.2493 54.4272C95.2049 50.686 93.6989 47.1106 91.0533 44.465C88.4077 41.8194 84.8323 40.3134 81.0912 40.269C77.35 40.2245 73.7398 41.6451 71.0321 44.2271H71.0321Z" fill="#4BD4DD"/>
<path d="M44.2776 340.443H97.8847L124.688 294.018L97.8847 247.593H44.2776L17.4741 294.018L44.2776 340.443Z" fill="#4BD4DD" fill-opacity="0.1"/>
<path d="M104.68 356.16H37.4827C36.8008 356.159 36.1312 355.979 35.5406 355.638C34.9501 355.297 34.4593 354.808 34.1174 354.218L0.518974 296.023C0.178936 295.432 -1.63646e-05 294.762 1.12241e-09 294.08C1.63668e-05 293.398 0.179003 292.728 0.519069 292.137L34.1175 233.943C34.4594 233.353 34.9501 232.863 35.5406 232.522C36.1312 232.181 36.8009 232.001 37.4827 232H104.68C105.362 232.001 106.031 232.181 106.622 232.522C107.212 232.863 107.703 233.353 108.045 233.943L141.643 292.137C141.983 292.728 142.162 293.398 142.162 294.08C142.162 294.762 141.983 295.432 141.643 296.023L108.045 354.218C107.703 354.808 107.212 355.298 106.622 355.638C106.031 355.979 105.362 356.159 104.68 356.16ZM37.4827 233.554C37.0736 233.555 36.6718 233.663 36.3175 233.868C35.9631 234.072 35.6687 234.366 35.4635 234.72L1.86509 292.914C1.66109 293.269 1.55373 293.671 1.55374 294.08C1.55376 294.489 1.66114 294.891 1.86518 295.246L35.4635 353.44C35.6687 353.794 35.9631 354.088 36.3175 354.293C36.6718 354.497 37.0736 354.605 37.4827 354.606H104.68C105.089 354.606 105.491 354.497 105.845 354.293C106.199 354.088 106.494 353.794 106.699 353.44L140.297 295.246C140.501 294.891 140.609 294.489 140.609 294.08C140.609 293.671 140.501 293.269 140.297 292.914L106.699 234.72C106.494 234.366 106.199 234.072 105.845 233.868C105.491 233.663 105.089 233.555 104.68 233.554H37.4827Z" fill="#4BD4DD"/>
<path fill-rule="evenodd" clip-rule="evenodd" d="M71.0813 307.616C71.0813 307.616 87.5848 287.607 87.5848 278.492L87.5849 278.465C87.5831 276.298 87.1545 274.152 86.3235 272.15C85.4924 270.149 84.2753 268.331 82.7415 266.799C81.2078 265.268 79.3875 264.054 77.3845 263.226C75.3815 262.398 73.2351 261.973 71.0678 261.975C68.9005 261.977 66.7548 262.405 64.7532 263.236C62.7516 264.068 60.9332 265.285 59.402 266.818C57.8707 268.352 56.6566 270.172 55.8288 272.175C55.0011 274.178 54.576 276.325 54.5777 278.492C54.5777 287.607 71.0813 307.616 71.0813 307.616ZM77.5648 278.492C77.5648 282.073 74.662 284.976 71.0813 284.976C67.5005 284.976 64.5977 282.073 64.5977 278.492C64.5977 274.911 67.5005 272.009 71.0813 272.009C74.662 272.009 77.5648 274.911 77.5648 278.492Z" fill="#4BD4DD"/>
<path d="M70.492 326.061C74.0728 326.061 76.9756 323.158 76.9756 319.578C76.9756 315.997 74.0728 313.094 70.492 313.094C66.9112 313.094 64.0085 315.997 64.0085 319.578C64.0085 323.158 66.9112 326.061 70.492 326.061Z" fill="#4BD4DD"/>
<path d="M498.412 369.644C492.795 389.132 476.392 402.774 459.281 414.363C456.892 415.982 454.503 417.563 452.112 419.107C452.096 419.114 452.079 419.129 452.063 419.136C451.948 419.21 451.832 419.284 451.725 419.358C451.232 419.676 450.738 419.995 450.249 420.309L450.518 420.43C450.518 420.43 450.782 420.57 450.493 420.452C450.407 420.416 450.317 420.384 450.231 420.348C440.291 416.339 430.175 412.035 422.557 404.525C414.655 396.726 410.037 384.494 414.316 374.249C414.879 372.907 415.589 371.632 416.434 370.447C416.781 369.951 417.155 369.475 417.544 369.009C419.905 366.128 422.99 363.928 426.482 362.635C429.974 361.342 433.748 361.002 437.415 361.651C441.082 362.3 444.511 363.914 447.347 366.327C450.184 368.739 452.327 371.864 453.555 375.38C454.812 363.676 445.161 353.872 435.874 346.638C426.582 339.408 416.024 331.534 414.228 319.895C413.225 313.42 415.477 307.144 419.579 302.106C419.706 301.953 419.833 301.8 419.964 301.651C424.957 295.784 431.98 292.016 439.631 291.1C453.878 289.62 467.717 297.161 478.068 307.067C494.727 323.005 504.798 347.486 498.412 369.644Z" fill="#4BD4DD" fill-opacity="0.45"/>
<path d="M471.632 344.154C474.366 348.408 476.466 353.039 477.864 357.899C479.046 362.243 479.572 366.739 479.425 371.239C479.043 380.497 476.444 389.529 471.846 397.575C468.382 403.678 464.16 409.319 459.281 414.364C456.892 415.982 454.502 417.564 452.112 419.108C452.096 419.115 452.079 419.13 452.063 419.137C451.948 419.211 451.832 419.285 451.725 419.359C451.232 419.677 450.738 419.996 450.249 420.31C450.249 420.31 450.782 420.571 450.493 420.453C450.407 420.417 450.317 420.385 450.231 420.349C451.122 413.045 450.249 405.634 447.686 398.736C445.123 391.839 440.944 385.657 435.499 380.707C430.041 375.833 423.509 372.318 416.434 370.448C416.781 369.951 417.155 369.476 417.544 369.009C420.276 369.776 422.936 370.782 425.491 372.017C434.624 376.403 442.103 383.613 446.82 392.58C451.053 400.723 452.874 409.904 452.071 419.046C452.479 418.676 452.888 418.298 453.285 417.923C460.838 410.881 467.547 402.798 472.087 393.469C476.027 385.569 477.962 376.822 477.725 367.998C477.354 358.376 473.521 349.463 467.97 341.704C461.886 333.427 454.699 326.02 446.609 319.69C438.455 313.159 429.533 307.651 420.042 303.288C419.828 303.188 419.66 303.01 419.574 302.79C419.488 302.57 419.49 302.325 419.579 302.106C419.642 301.91 419.78 301.746 419.963 301.651C420.057 301.611 420.16 301.592 420.262 301.596C420.365 301.601 420.465 301.628 420.555 301.677C421.727 302.216 422.891 302.763 424.045 303.333C433.661 308.086 442.648 314.015 450.801 320.983C458.677 327.697 466.092 335.369 471.632 344.154Z" fill="white"/>
<path d="M328.167 58.4087C321.608 55.3573 313.555 54.357 306.88 57.1925C300.206 60.0279 295.656 67.2959 297.814 73.728C298.792 76.6442 301.021 79.5123 300.153 82.4575C299.484 84.7246 297.153 86.2213 294.863 87.2855C292.574 88.3498 290.069 89.2445 288.414 91.0394C286.758 92.8344 286.413 95.9244 288.481 97.3164C289.162 97.7749 290.014 97.9924 290.675 98.4757C291.238 98.9333 291.645 99.5552 291.837 100.255C292.03 100.954 292 101.697 291.751 102.378C291.2 103.749 290.29 104.947 289.116 105.845C286.768 107.87 283.665 110.187 284.394 113.062C284.664 113.83 285.116 114.522 285.711 115.078C286.306 115.634 287.026 116.039 287.811 116.258C289.44 116.728 291.131 116.951 292.827 116.92L362.114 119.102C364.402 119.274 366.701 119.146 368.955 118.72C370.051 118.52 371.093 118.097 372.018 117.476C372.942 116.855 373.729 116.05 374.328 115.111C375.655 112.655 374.784 109.63 373.145 107.336C371.506 105.043 369.187 103.234 367.271 101.128C365.355 99.0223 363.787 96.3936 364.125 93.6719C364.395 91.4931 365.832 89.61 366.864 87.6304C367.895 85.6507 368.494 83.177 367.159 81.3558C365.276 78.7894 360.756 79.0215 358.616 76.6302C357 74.8256 357.312 72.2276 357.152 69.9004C356.765 64.3027 352.89 59.0161 347.373 56.5612C344.568 55.3569 341.516 54.8371 338.47 55.0445C335.424 55.2519 332.472 56.1807 329.855 57.7542L328.167 58.4087Z" fill="#2F2E41"/>
<path d="M284.383 409.766L273.531 406.505L280.943 363.096L296.959 367.909L284.383 409.766Z" fill="#A0616A"/>
<path d="M283.991 421.116L249 410.604L249.133 410.161C249.67 408.372 250.555 406.707 251.735 405.26C252.916 403.814 254.37 402.614 256.015 401.729C257.66 400.844 259.463 400.292 261.321 400.104C263.179 399.916 265.055 400.096 266.844 400.633L266.845 400.633L288.216 407.054L283.991 421.116Z" fill="#2F2E41"/>
<path d="M386.787 410.133L375.456 410.132L370.065 366.426L386.789 366.427L386.787 410.133Z" fill="#A0616A"/>
<path d="M389.677 421.116L353.141 421.115V420.652C353.141 418.785 353.508 416.936 354.223 415.21C354.938 413.485 355.985 411.917 357.306 410.597C358.626 409.276 360.194 408.229 361.919 407.514C363.645 406.8 365.494 406.432 367.362 406.432H367.362L389.677 406.433L389.677 421.116Z" fill="#2F2E41"/>
<path d="M371.058 377.076C370.069 377.075 369.113 376.723 368.361 376.081C367.608 375.439 367.109 374.551 366.953 373.575L350.128 268.622C350.017 267.927 349.681 267.287 349.173 266.8C348.665 266.312 348.012 266.004 347.313 265.921C346.614 265.839 345.907 265.987 345.299 266.342C344.692 266.698 344.217 267.242 343.947 267.893L300.358 372.828C299.952 373.797 299.195 374.577 298.24 375.013C297.284 375.449 296.199 375.508 295.202 375.179L279.458 369.931C278.477 369.607 277.653 368.93 277.146 368.03C276.639 367.131 276.486 366.075 276.716 365.069L312.437 207.002C312.612 206.241 312.997 205.544 313.548 204.99C314.098 204.436 314.793 204.047 315.554 203.868L363.46 192.747C364.049 192.613 364.66 192.608 365.251 192.73C365.842 192.853 366.4 193.101 366.887 193.458C398.432 216.378 395.767 291.263 389.888 372.575C389.815 373.593 389.37 374.549 388.638 375.26C387.906 375.971 386.938 376.389 385.919 376.433L371.24 377.072C371.179 377.074 371.118 377.076 371.058 377.076Z" fill="#2F2E41"/>
<path d="M326.021 116.925H335.725L336.804 127.092H323.864L326.021 116.925Z" fill="#A0616A"/>
<path d="M330.731 118.566C343.268 118.566 353.431 108.402 353.431 95.8651C353.431 83.328 343.268 73.1646 330.731 73.1646C318.194 73.1646 308.03 83.328 308.03 95.8651C308.03 108.402 318.194 118.566 330.731 118.566Z" fill="#A0616A"/>
<path d="M343.435 104.378L352.793 98.1392C352.793 98.1392 353.539 97.7737 353.417 98.1392C353.295 98.5046 353.055 100.011 353.055 100.011L343.435 106.25V104.378Z" fill="#EAEAEA"/>
<path d="M331.711 213.519C326.262 213.484 320.889 212.242 315.977 209.883L315.808 209.804L315.741 209.63L295.381 156.877L294.993 147.712C294.864 144.647 295.377 141.588 296.501 138.734C297.625 135.879 299.334 133.291 301.519 131.137C303.703 128.983 306.315 127.311 309.185 126.227C312.055 125.143 315.12 124.673 318.183 124.846L339.799 126.063C345.383 126.381 350.636 128.814 354.488 132.868C358.341 136.922 360.504 142.292 360.536 147.885C361.098 148.964 365.085 157.397 357.271 165.321C356.979 167.125 354.246 185.883 364.56 196.198L364.85 196.487L364.597 196.81C364.433 197.019 351.186 213.517 331.711 213.519Z" fill="#F36F6F"/>
<path d="M362.065 217.498C363.342 217.035 364.503 216.298 365.464 215.338C366.425 214.378 367.165 213.218 367.63 211.942C368.095 210.665 368.274 209.302 368.155 207.948C368.037 206.595 367.622 205.284 366.942 204.108L388.532 179.113L371.512 176.897L353.62 200.973C351.72 202.246 350.353 204.173 349.778 206.387C349.204 208.602 349.461 210.95 350.502 212.987C351.543 215.024 353.295 216.608 355.426 217.44C357.557 218.271 359.919 218.292 362.065 217.498Z" fill="#A0616A"/>
<path d="M322.497 212.233C321.14 212.296 319.785 212.061 318.529 211.544C317.272 211.027 316.144 210.241 315.224 209.241C314.304 208.241 313.615 207.052 313.205 205.757C312.794 204.461 312.673 203.092 312.849 201.745L283.313 186.964L298.175 178.38L323.944 193.731C326.188 194.177 328.19 195.431 329.571 197.254C330.953 199.078 331.617 201.344 331.439 203.625C331.26 205.905 330.251 208.041 328.603 209.628C326.956 211.215 324.783 212.141 322.497 212.233Z" fill="#A0616A"/>
<path d="M375.563 198.207C374.752 198.207 373.959 197.969 373.281 197.523L362.603 190.52C361.706 189.933 361.07 189.022 360.829 187.977C360.588 186.932 360.76 185.835 361.31 184.914L369.041 171.927C369.459 171.225 369.724 170.441 369.818 169.629C369.912 168.817 369.833 167.994 369.587 167.214C369.34 166.435 368.931 165.716 368.388 165.106C367.844 164.495 367.177 164.007 366.431 163.672L344.223 153.716C341.492 152.476 339.263 150.345 337.9 147.673C336.538 145 336.124 141.945 336.726 139.006C337.141 137.025 338.007 135.165 339.258 133.573C340.509 131.981 342.11 130.699 343.938 129.827C345.765 128.955 347.769 128.516 349.793 128.544C351.817 128.573 353.808 129.068 355.61 129.991L389.301 147.255C391.573 148.42 393.568 150.062 395.147 152.069C396.726 154.076 397.853 156.401 398.45 158.884C399.048 161.367 399.101 163.949 398.608 166.455C398.114 168.961 397.085 171.33 395.59 173.401L378.935 196.479C378.55 197.014 378.044 197.45 377.458 197.751C376.871 198.051 376.222 198.207 375.563 198.207Z" fill="#F36F6F"/>
<path d="M306.233 202.305C305.619 202.305 305.013 202.169 304.459 201.906L278.707 189.788C276.396 188.701 274.347 187.127 272.701 185.174C271.055 183.221 269.851 180.936 269.17 178.475C268.49 176.013 268.349 173.434 268.758 170.913C269.167 168.392 270.116 165.989 271.54 163.869L292.647 132.444C293.776 130.763 295.277 129.365 297.034 128.359C298.792 127.353 300.757 126.766 302.778 126.644C304.799 126.521 306.821 126.867 308.687 127.653C310.553 128.44 312.212 129.646 313.535 131.178C315.485 133.458 316.603 136.331 316.706 139.329C316.81 142.327 315.892 145.271 314.103 147.679L299.501 167.149C299.01 167.804 298.663 168.554 298.483 169.352C298.304 170.149 298.294 170.976 298.456 171.777C298.619 172.579 298.948 173.337 299.424 174.002C299.9 174.667 300.511 175.223 301.218 175.635L314.273 183.251C315.2 183.789 315.883 184.665 316.178 185.696C316.474 186.727 316.359 187.832 315.858 188.78L309.91 200.08C309.559 200.751 309.03 201.313 308.382 201.706C307.734 202.098 306.99 202.305 306.233 202.305Z" fill="#F36F6F"/>
<path d="M307.507 92.6381C314.676 92.0624 320.628 84.9008 319.883 77.7476C319.799 80.696 320.802 83.5725 322.7 85.8298C324.599 88.087 327.261 89.5677 330.18 89.99C333.469 90.3523 337.074 89.3574 339.936 91.0163C343.106 92.8537 344.121 97.3158 347.423 98.9028C350.614 100.436 354.667 98.3449 356.244 95.175C357.82 92.0051 357.433 88.1967 356.389 84.8142C354.899 79.9902 352.185 75.634 348.513 72.1691C344.841 68.7043 340.334 66.2489 335.432 65.0416C330.53 63.8344 325.398 63.9164 320.537 65.2798C315.676 66.6432 311.25 69.2414 307.69 72.8219C304.676 75.8539 302.282 79.7182 301.894 83.9759C301.506 88.2337 303.481 92.8537 307.305 94.7664L307.507 92.6381Z" fill="#2F2E41"/>
<path d="M308.498 102.506C308.498 102.506 312.097 102.343 314.737 101.882C317.014 101.485 318.876 100.62 321.6 100.634C324.85 100.652 326.519 101.884 329.71 102.506C335.019 103.541 343.435 104.378 343.435 104.378C343.435 104.378 344.035 108.255 343.435 110.616C342.735 113.37 344.683 113.736 344.683 113.736C344.683 113.736 341.102 116.475 338.444 117.479C335.786 118.483 330.334 118.727 325.967 118.103C323.449 117.743 322.009 117.356 319.728 116.231C316.622 114.7 314.821 113.671 312.865 111.24C310.679 108.522 308.498 102.506 308.498 102.506Z" fill="#EAEAEA"/>
</g>
<defs>
<clipPath id="clip0">
<rect width="500" height="420.561" fill="white"/>
</clipPath>
</defs>
</svg>
