<svg width="14" height="20" viewBox="0 0 14 20" fill="none" xmlns="http://www.w3.org/2000/svg">
<path fill-rule="evenodd" clip-rule="evenodd" d="M7 19.3587C7 19.3587 14 10.8717 14 7.00572L14 6.99427C13.9992 6.07502 13.8174 5.1649 13.465 4.31591C13.1125 3.46692 12.5962 2.69568 11.9457 2.0462C11.2952 1.39672 10.5231 0.881724 9.6735 0.530636C8.82393 0.179548 7.91353 -0.000749627 6.99427 2.3425e-06C6.07502 0.000754312 5.16492 0.182545 4.31593 0.535022C3.46694 0.8875 2.69568 1.40375 2.0462 2.05429C1.39673 2.70483 0.881745 3.47693 0.530656 4.3265C0.179567 5.17606 -0.000749627 6.08647 2.34226e-06 7.00572C2.34226e-06 10.8717 7 19.3587 7 19.3587ZM9.74998 7.00572C9.74998 8.5245 8.51877 9.75572 6.99998 9.75572C5.4812 9.75572 4.24998 8.5245 4.24998 7.00572C4.24998 5.48693 5.4812 4.25571 6.99998 4.25571C8.51877 4.25571 9.74998 5.48693 9.74998 7.00572Z" fill="#4BD4DD"/>
</svg>
